<?xml version="1.0" encoding="UTF-8" standalone="no"?>
<svg
   xmlns:dc="http://purl.org/dc/elements/1.1/"
   xmlns:cc="http://creativecommons.org/ns#"
   xmlns:rdf="http://www.w3.org/1999/02/22-rdf-syntax-ns#"
   xmlns:svg="http://www.w3.org/2000/svg"
   xmlns="http://www.w3.org/2000/svg"
   xmlns:sodipodi="http://sodipodi.sourceforge.net/DTD/sodipodi-0.dtd"
   xmlns:inkscape="http://www.inkscape.org/namespaces/inkscape"
   sodipodi:docname="post.svg"
   inkscape:version="1.0 (1.0+r73+1)"
   width="100px"
   height="80px"
   viewBox="0 0 100 80"
   version="1.1"
   id="SVGRoot">
  <defs
     id="defs10" />
  <sodipodi:namedview
     inkscape:window-maximized="1"
     inkscape:window-y="27"
     inkscape:window-x="0"
     inkscape:window-height="960"
     inkscape:window-width="1280"
     showgrid="false"
     inkscape:document-rotation="0"
     inkscape:current-layer="layer1"
     inkscape:document-units="px"
     inkscape:cy="23.85781"
     inkscape:cx="27.80095"
     inkscape:zoom="4.0257201"
     inkscape:pageshadow="2"
     inkscape:pageopacity="0.0"
     borderopacity="1.0"
     bordercolor="#666666"
     pagecolor="#ffffff"
     id="base" />
  <metadata
     id="metadata13">
    <rdf:RDF>
      <cc:Work
         rdf:about="">
        <dc:format>image/svg+xml</dc:format>
        <dc:type
           rdf:resource="http://purl.org/dc/dcmitype/StillImage" />
        <dc:title></dc:title>
      </cc:Work>
    </rdf:RDF>
  </metadata>
  <g
     id="layer1"
     inkscape:groupmode="layer"
     inkscape:label="Calque 1">
    <path
       style="stroke-width:0.173116"
       id="path91"
       d="m 24.633058,26.942861 c 0,0.16624 -0.180274,0.16624 -0.180274,0.16624 h -0.180275 c -0.180274,0 -0.180274,-0.16624 -0.360549,-0.332492 0,0 -0.180275,-0.16624 -0.180275,-0.33248 0,-0.16624 0,-0.16624 0.180275,-0.16624 l 0.360549,0.16624 c 0.180275,0.16624 0.360549,0.33248 0.360549,0.498732 m -3.244943,-1.662425 c 0,-0.831212 -0.360549,-1.329932 -0.901373,-1.329932 0,0 0,0.16624 -0.180275,0.16624 v 0.33248 h 0.540824 c 0,0.33248 0.180275,0.498732 0.180275,0.831212 h 0.360549 m 6.309612,-0.831212 c 0.360549,0 0.540824,0.33248 0.721099,0.831212 h 0.36055 c -0.180275,-0.16624 -0.180275,-0.33248 -0.180275,-0.498732 0,-0.16624 0,-0.33248 -0.180275,-0.49872 -0.180275,-0.16624 -0.36055,-0.33248 -0.540824,-0.33248 0,0 -0.180275,0.16624 -0.360549,0.16624 0,0.16624 0.180274,0.16624 0.180274,0.33248 m -5.408238,2.659877 c -0.180275,0 -0.180275,0 -0.180275,-0.16624 0,-0.166252 0,-0.332492 0.180275,-0.498732 0.360549,0 0.540824,-0.16624 0.540824,-0.16624 0.180274,0 0.180274,0.16624 0.180274,0.16624 0,0.16624 -0.180274,0.33248 -0.540824,0.664972 h -0.180274 m -1.983022,-0.16624 c -0.721098,-0.332492 -0.901372,-0.831212 -0.901372,-1.662425 0,-0.498732 0,-0.831212 0.360549,-1.163692 0.180274,-0.332492 0.540823,-0.498732 0.901373,-0.498732 0.360549,0 0.540823,0.16624 0.901372,0.498732 0.180276,0.49872 0.360551,0.997452 0.360551,1.496173 v 0.16624 0.166252 h 0.180274 v -0.166252 c 0.180275,0 0.180275,-0.33248 0.180275,-0.997453 0,-0.49872 0,-0.997452 -0.360549,-1.496173 -0.360551,-0.498732 -0.7211,-0.831212 -1.442198,-0.831212 -0.540824,0 -1.081647,0.33248 -1.261922,0.831212 -0.360549,0.664973 -0.432659,1.163693 -0.432659,1.994905 0,0.664973 0.252384,1.329933 0.973483,1.994906 0.180274,-0.166241 0.360549,-0.166241 0.540823,-0.332481 m 22.53433,23.440125 c 0.180275,0 0.180275,-0.06649 0.180275,-0.216115 0,-0.365733 -0.180275,-0.797962 -0.721098,-1.280064 -0.540824,-0.498726 -1.442197,-0.814586 -2.523846,-0.94758 -0.180274,-0.01663 -0.360549,-0.01663 -0.360549,-0.01663 -0.180274,-0.03325 -0.180274,-0.03325 -0.360549,-0.03325 -0.180274,-0.01663 -0.540825,-0.04987 -0.721099,-0.08312 0.540825,-1.546051 0.721099,-2.909235 0.721099,-4.106179 0,-1.662413 -0.360549,-2.826105 -1.081648,-3.823558 -0.721099,-0.997452 -1.442197,-1.496185 -2.34357,-1.662425 -0.180275,0.16624 -0.180275,0.16624 -0.180275,0.33248 0.901373,0.332493 1.802746,0.997453 2.34357,1.994905 0.540824,1.163705 0.721098,2.161157 0.721098,3.32485 0,0.930947 -0.180274,2.310755 -0.901373,4.072922 -0.721098,0.265986 -1.442196,0.881082 -1.98302,1.845286 0,0.149617 0,0.232739 0.180275,0.232739 0,0 0.180274,-0.149618 0.360549,-0.432229 0.360549,-0.282612 0.540823,-0.565224 0.901373,-0.847834 0.540823,-0.282612 0.901373,-0.432231 1.442196,-0.432231 0.901374,0 1.802747,0.116373 2.343572,0.349109 0.721098,0.216115 1.081647,0.448853 1.261922,0.714841 0.180275,0.249363 0.360549,0.482102 0.540824,0.698217 0,0.216114 0.180274,0.31586 0.180274,0.31586 M 26.255531,26.277889 c -0.180275,-0.16624 -0.180275,-0.498732 -0.180275,-0.831212 0,-0.664973 0,-0.997453 0.360549,-1.496173 0.360549,-0.332492 0.721099,-0.498732 1.081648,-0.498732 0.540823,0 0.901373,0.33248 1.261923,0.664972 0.180274,0.49872 0.360549,0.831212 0.360549,1.329933 0,0.831212 -0.360549,1.329932 -1.081649,1.496184 0,0 0.180275,0.16624 0.36055,0.16624 0.36055,0 0.540824,0.166241 0.901374,0.332481 0.180274,-0.997453 0.360549,-1.662425 0.360549,-2.493626 0,-0.997452 -0.180275,-1.662425 -0.540824,-2.161157 -0.540824,-0.49872 -1.081649,-0.66496 -1.802747,-0.66496 -0.540824,0 -1.081647,0.16624 -1.622471,0.49872 -0.360549,0.498732 -0.540824,0.831213 -0.540824,1.329945 0,0.8312 0.180275,1.496173 0.540824,2.161145 0.180275,0 0.360549,0.16624 0.540824,0.16624 m 2.163295,2.659877 c -2.34357,1.496173 -4.146317,2.161145 -5.588513,2.161145 -1.261924,0 -2.523846,-0.498732 -3.605493,-1.329944 0.180275,0.332492 0.360549,0.664972 0.540824,0.831212 l 1.081647,0.997453 c 0.721098,0.664972 1.622472,0.997452 2.523845,0.997452 1.261922,0 2.70412,-0.664972 4.506866,-1.828665 l 1.622472,-0.997452 c 0.360549,-0.33248 0.721098,-0.664961 0.721098,-1.163693 0,-0.16624 0,-0.33248 -0.180274,-0.33248 -0.180275,-0.33248 -1.081648,-0.831212 -2.884394,-1.329933 -1.622472,-0.664972 -2.884395,-0.997452 -3.605493,-0.997452 -0.540824,0 -1.442197,0.33248 -2.70412,0.997452 -1.081647,0.664961 -1.802746,1.329933 -1.802746,1.994905 0,0 0.180275,0.16624 0.36055,0.498721 1.081647,0.831212 2.163294,1.329932 3.244943,1.329932 1.442197,0 3.244944,-0.66496 5.588513,-2.327385 v 0.33248 c 0.180275,0 0.180275,0.166252 0.180275,0.166252 m 4.146317,33.580884 c 0.721098,1.25014 1.98302,1.878534 3.425218,1.878534 0.360549,0 0.721098,-0.04987 1.081648,-0.149617 0.360549,-0.06649 0.721098,-0.182867 0.901373,-0.31586 0.180274,-0.116373 0.360549,-0.232738 0.540823,-0.365733 0.360551,-0.116373 0.360551,-0.19949 0.540825,-0.282612 l 3.064669,-2.443758 c 0.721098,-0.530311 1.442197,-0.994127 2.343571,-1.396432 0.721098,-0.398981 1.442196,-0.664969 1.802745,-0.814586 0.540824,-0.132994 0.901373,-0.332485 1.261924,-0.598471 0.180274,-0.249364 0.360549,-0.565224 0.360549,-0.964205 0,-0.482102 -0.360549,-0.847834 -0.7211,-1.113822 -0.360549,-0.265986 -0.721098,-0.448853 -1.081647,-0.565222 -0.360549,-0.116373 -0.721098,-0.382357 -1.261922,-0.831211 -0.360549,-0.432229 -0.7211,-1.030701 -0.901374,-1.812038 L 43.74217,51.779414 c -0.180274,-0.448854 -0.180274,-0.781338 -0.360549,-0.964204 0,-0.04987 0,-0.06649 -0.180275,-0.06649 -0.180274,0 -0.540823,0.149619 -0.721098,0.43223 -0.360549,0.282611 -0.721098,0.598472 -1.081647,0.930954 -0.180275,0.332485 -0.7211,0.631721 -1.081649,0.914332 -0.540824,0.282611 -1.081647,0.43223 -1.442196,0.43223 -1.442198,0 -2.163297,-0.365733 -2.70412,-1.080574 -0.360549,-0.531974 -0.540824,-1.14707 -0.721099,-1.845286 -0.36055,-0.282612 -0.540824,-0.432229 -0.901374,-0.432229 -0.901372,0 -1.261922,0.864459 -1.261922,2.609999 v 0.548599 1.928408 1.479554 0.71484 0.498727 c 0,0.149618 -0.180274,0.482102 -0.180274,0.997452 -0.180275,0.51535 -0.180275,1.100522 -0.180275,1.762165 l -0.360549,1.845288 v 0.02826 M 6.4253206,61.634242 c 1.6765539,0.226089 3.6054924,0.709853 5.7868164,1.447968 2.181323,0.731465 3.515355,1.113822 4.002097,1.113822 1.261922,0 2.307515,-0.51535 3.172833,-1.51114 0.180275,-0.32251 0.180275,-0.701542 0.180275,-1.137096 0,-1.570987 -1.027565,-3.55758 -3.082696,-5.96809 l -1.225868,-1.512803 c -0.252385,-0.31586 -0.558851,-0.797962 -0.955455,-1.446305 -0.378577,-0.648344 -0.721099,-1.14707 -0.991511,-1.496178 -0.234356,-0.382357 -0.612934,-0.764714 -1.099675,-1.14707 -0.468714,-0.382357 -1.009539,-0.63172 -1.604445,-0.764714 -0.7571533,0.132994 -1.2799495,0.365733 -1.5323332,0.681593 -0.2523849,0.31586 -0.3966043,0.664968 -0.4326595,1.030701 -0.054084,0.349107 -0.162247,0.581847 -0.3425216,0.698216 -0.1802745,0.09975 -0.4867421,0.182867 -0.9013739,0.265987 -0.090132,0 -0.2523838,0 -0.4867411,0.01663 H 6.4253206 c -0.9554531,0 -1.6044476,0.09975 -1.9469638,0.265987 -0.4506946,0.482101 -0.6850432,1.0307 -0.6850432,1.612548 0,0.265986 0.072097,0.714841 0.2163243,1.34656 0.144227,0.615096 0.2163351,1.113822 0.2163351,1.46293 0,0.681592 -0.2163351,1.363185 -0.6670188,2.044777 -0.4506838,0.714842 -0.6850432,1.246816 -0.6850432,1.625848 0.1802756,0.645019 1.3700863,1.09886 3.5514096,1.364847 M 12.428466,46.517854 c 0,-1.147071 0.324494,-2.41051 0.991511,-3.906685 0.648988,-1.496173 1.297977,-2.493625 1.928938,-3.158597 -0.03606,-0.16624 -0.126192,-0.16624 -0.270411,-0.16624 l -0.180275,-0.166241 c -0.522796,0.498721 -1.153758,1.662413 -1.910911,3.324838 -0.757154,1.496173 -1.153758,2.875982 -1.153758,3.890059 0,0.748089 0.198302,1.396433 0.558851,1.961656 0.396605,0.548599 1.35206,1.34656 2.866367,2.360636 l 1.910911,1.147071 c 2.037103,1.629171 3.118751,2.759617 3.118751,3.424586 0,0.349108 -0.180275,0.698216 -0.721098,1.080573 -0.36055,0.398981 -0.847291,0.598472 -1.261923,0.598472 -0.03606,0 -0.05408,0.03325 -0.05408,0.116373 0,0.01663 0.180274,0.349108 0.558851,0.997452 0.757153,0.94758 2.379625,1.413058 4.542921,1.413058 3.966041,0 7.03071,-1.496179 9.374281,-4.488536 0,-0.83121 0,-1.346561 -0.180275,-1.562675 v -0.615096 c 0,-1.080572 0.180275,-1.895158 0.540824,-2.427134 0.360549,-0.531974 0.721098,-0.781336 1.261922,-0.781336 0.360549,0 0.7211,0.116372 1.081649,0.365731 0.180274,-1.280063 0.180274,-2.393885 0.180274,-3.391337 0,-1.512803 0,-2.75962 -0.360549,-3.923313 -0.180274,-0.997452 -0.540825,-1.828665 -0.901374,-2.493625 -0.360549,-0.498732 -0.721098,-0.997453 -1.081647,-1.496185 -0.360549,-0.49872 -0.540824,-0.997452 -0.901373,-1.496173 -0.180275,-0.664972 -0.360549,-1.163704 -0.360549,-1.994905 -0.540825,-0.831212 -0.901374,-1.662424 -1.442198,-2.493637 -0.360549,-0.831212 -0.721098,-1.662413 -1.081647,-2.327385 l -1.622473,1.163693 c -1.802746,1.163692 -3.244943,1.662424 -4.506865,1.662424 -1.081648,0 -1.983021,-0.16624 -2.523846,-0.831212 l -1.081647,-0.831212 c 0,0.498732 -0.180275,1.163692 -0.540824,1.828665 l -1.13573,1.994905 c -0.504768,1.163692 -0.775181,1.828664 -0.829263,2.327385 -0.07211,0.33248 -0.126192,0.664972 -0.162247,0.664972 l -1.352059,2.493625 c -1.460226,2.493638 -2.199352,4.804398 -2.199352,6.716181 0,0.382357 0.03606,0.781338 0.108165,1.180319 -0.811235,-0.51535 -1.20784,-1.230191 -1.20784,-2.161146 m 12.907664,15.726497 c -2.34357,0 -4.146317,0.292586 -5.408239,0.872771 v -0.04987 c -0.901373,0.997452 -1.910912,1.512802 -3.317053,1.512802 -0.883346,0 -2.27146,-0.315859 -4.146316,-0.947579 C 10.571636,63.034011 8.895082,62.575183 7.4348578,62.272622 7.2906384,62.234385 6.9661433,62.17786 6.4433471,62.101393 5.9385763,62.02658 5.4698675,61.950113 5.0552324,61.873641 4.6766568,61.798828 4.2439973,61.685788 3.7752785,61.532845 3.3245947,61.401513 2.9640434,61.230284 2.6936353,61.022482 2.4448564,60.813017 2.3222694,60.576953 2.3222694,60.312629 c 0,-0.265988 0.061304,-0.550262 0.1838805,-0.852822 0.1153773,-0.182867 0.2415692,-0.365733 0.3677611,-0.531974 0.1261919,-0.182867 0.2343594,-0.349109 0.3064675,-0.515352 0.1081676,-0.149617 0.1802757,-0.299236 0.2523838,-0.465477 0.072097,-0.149618 0.1442162,-0.299236 0.1802756,-0.482102 0.036049,-0.166243 0.072097,-0.332484 0.072097,-0.498726 0,-0.166242 -0.072097,-0.664968 -0.2163351,-1.546051 -0.1442162,-0.864459 -0.2163243,-1.413058 -0.2163243,-1.645796 0,-0.731466 0.1802757,-1.313312 0.5768757,-1.728917 0.3966107,-0.415605 0.7751864,-0.63172 1.1717863,-0.63172 h 2.0731601 c 0.162247,0 0.4146318,-0.08312 0.7932085,-0.282612 0.1261919,-0.265986 0.2343562,-0.482102 0.3064665,-0.681592 0.090143,-0.199491 0.126193,-0.349108 0.162247,-0.415605 0.03606,-0.09975 0.072108,-0.199491 0.1081654,-0.282611 0.072108,-0.116373 0.162247,-0.249364 0.2884389,-0.382357 -0.1442194,-0.166242 -0.2163297,-0.382357 -0.2163297,-0.648345 0,-0.182865 0,-0.349107 0.036059,-0.448853 0,-0.598471 0.3064676,-1.446305 0.9554556,-2.560127 L 10.13897,44.664264 c 0.522796,-0.897697 0.9194,-1.56267 1.20784,-2.227642 0.306467,-0.66496 0.630961,-1.662413 0.99151,-2.992358 0.28844,-1.163692 0.973483,-2.327385 2.055132,-3.491077 l 1.35206,-1.496173 c 0.937428,-0.997453 1.550361,-1.828665 1.892883,-2.493637 0.342522,-0.664973 0.522796,-1.496173 0.522796,-2.161145 0,-0.332481 -0.09014,-1.329933 -0.28844,-2.992358 -0.180274,-1.662425 -0.270411,-3.324838 -0.270411,-4.821022 0,-1.163693 0.108164,-1.994905 0.342522,-2.826118 0.234357,-0.8312 0.648989,-1.662413 1.261922,-2.327385 0.540824,-0.664972 1.261922,-1.329933 2.34357,-1.662425 1.081648,-0.33248 2.34357,-0.49872 3.785768,-0.49872 0.540823,0 1.081647,0 1.622471,0.16624 0.540824,0 1.261923,0.16624 2.163296,0.498732 0.721098,0.332481 1.442197,0.664961 1.98302,1.163693 0.7211,0.49872 1.261923,1.329933 1.802747,2.161145 0.360549,0.997453 0.721098,1.994905 0.901373,3.324838 0.180275,0.831212 0.180275,1.662425 0.360549,2.826117 0,0.997453 0.180275,1.662425 0.180275,2.161145 0.180274,0.498732 0.180274,1.163693 0.360549,1.994905 0.180276,0.664973 0.36055,1.329933 0.721099,1.828665 0.360549,0.664972 0.721099,1.329933 1.261922,1.994905 0.540824,0.831213 1.261922,1.662425 1.983022,2.659877 1.622471,1.662413 2.884394,3.491078 3.605492,5.319743 0.901373,1.662413 1.442197,3.823559 1.442197,6.134324 0,1.14707 -0.180274,2.260892 -0.540824,3.341464 0.36055,0 0.540824,0.132995 0.7211,0.365733 0.180274,0.232739 0.360549,0.731465 0.540823,1.512802 l 0.180275,1.230192 c 0.180275,0.365732 0.360549,0.714841 0.901373,1.014076 0.360549,0.299236 0.721098,0.548599 1.261922,0.748089 0.360549,0.166243 0.901374,0.398981 1.261923,0.698217 0.360549,0.332484 0.540824,0.681593 0.540824,1.047324 0,0.565224 -0.180275,0.980829 -0.540824,1.280065 -0.360549,0.332483 -0.721098,0.565222 -1.261923,0.71484 -0.360549,0.166242 -1.081647,0.498727 -2.163295,0.967529 -0.901374,0.492077 -1.802747,1.088886 -2.70412,1.795414 l -1.802747,1.414719 c -0.721098,0.648345 -1.442196,1.113822 -1.983021,1.396434 -0.540824,0.299236 -1.261922,0.448854 -1.98302,0.448854 L 34.890679,64.751291 C 33.448481,64.402183 32.547108,63.737214 32.006284,62.723138 29.12189,62.400629 26.778319,62.241037 25.336123,62.241037" />
    <path
       style="fill:#00adef;stroke-width:0.546274"
       d="m 55.767946,19.762786 16.581867,-3.121417 0.0073,22.107844 -16.573968,0.130459 z m 16.573968,21.533682 0.01287,22.127111 -16.573968,-3.149612 -9.3e-4,-19.125921 z m 2.010111,-25.063436 21.98618,-4.435312 v 26.67032 l -21.98618,0.241258 z m 21.991291,25.271522 -0.0052,26.550221 -21.98618,-4.289139 -0.0308,-22.310792 z"
       id="path149" />
    <rect
       transform="matrix(0.99977115,-0.02139253,-0.15846732,0.98736422,0,0)"
       y="3.7795532"
       x="55.892059"
       height="72.971085"
       width="4.3029346"
       id="rect160"
       style="fill:#000000;stroke-width:1.50253;paint-order:stroke fill markers" />
  </g>
</svg>
