<svg xmlns="http://www.w3.org/2000/svg" viewBox="0 0 299 299" width="299" height="299">
	<style>
		tspan { white-space:pre }
		.shp0 { fill: #000000 } 
		.shp1 { fill: #ffffff } 
		.shp2 { fill: #aeaeae } 
	</style>
	<g id="Background">
		<path id="Path 0" class="shp0" d="M131 0.61C129.62 0.86 124.9 1.76 120.5 2.61C116.1 3.47 108.22 5.52 103 7.18C97.77 8.84 89.22 12.3 84 14.87C78.77 17.43 70.45 22.19 65.5 25.45C59.71 29.26 52.02 35.84 43.93 43.93C35.84 52.02 29.26 59.71 25.45 65.5C22.19 70.45 17.43 78.77 14.87 84C12.3 89.22 8.84 97.77 7.18 103C5.52 108.22 3.34 116.32 2.33 121C0.9 127.64 0.5 133.87 0.5 149.5C0.5 165.13 0.9 171.36 2.33 178C3.34 182.67 5.52 190.77 7.18 196C8.84 201.22 12.3 209.77 14.87 215C17.43 220.22 22.19 228.55 25.45 233.5C29.26 239.29 35.84 246.98 43.93 255.07C52.02 263.16 59.71 269.74 65.5 273.55C70.45 276.81 78.77 281.57 84 284.13C89.22 286.7 97.77 290.16 103 291.82C108.22 293.48 116.32 295.66 121 296.67C127.64 298.1 133.87 298.5 149.5 298.5C165.13 298.5 171.36 298.1 178 296.67C182.67 295.66 190.77 293.48 196 291.82C201.22 290.16 209.77 286.7 215 284.13C220.22 281.57 228.55 276.81 233.5 273.55C239.29 269.74 246.98 263.16 255.07 255.07C263.16 246.98 269.74 239.29 273.55 233.5C276.81 228.55 281.57 220.22 284.13 215C286.7 209.77 290.16 201.22 291.82 196C293.48 190.77 295.66 182.67 296.67 178C298.1 171.36 298.5 165.13 298.5 149.5C298.5 133.87 298.1 127.64 296.67 121C295.66 116.32 293.48 108.22 291.82 103C290.16 97.77 286.7 89.22 284.13 84C281.57 78.77 276.81 70.45 273.55 65.5C269.74 59.71 263.16 52.02 255.07 43.93C246.98 35.84 239.29 29.26 233.5 25.45C228.55 22.19 220.22 17.43 215 14.87C209.77 12.3 201.22 8.85 196 7.19C190.77 5.53 183.12 3.42 179 2.5C173.83 1.34 165.6 0.71 152.5 0.49C142.05 0.31 132.37 0.36 131 0.61Z" />
		<path id="Path 1" class="shp1" d="M133.5 3.62C131.85 3.87 126.67 4.76 122 5.6C117.32 6.44 109 8.61 103.5 10.44C98 12.26 89.67 15.66 85 18C80.32 20.33 72.9 24.6 68.5 27.48C64.1 30.36 57.12 35.62 53 39.15C48.87 42.69 42.29 49.39 38.37 54.04C34.45 58.69 29.22 65.65 26.75 69.5C24.28 73.35 20.45 80.1 18.24 84.5C16.04 88.9 12.81 96.55 11.07 101.5C9.33 106.45 6.94 115 5.75 120.5C3.97 128.77 3.59 133.79 3.59 149.5C3.59 165.21 3.97 170.23 5.75 178.5C6.94 184 9.33 192.55 11.07 197.5C12.81 202.45 16.03 210.1 18.24 214.5C20.44 218.9 24.6 226.1 27.48 230.5C30.36 234.9 35.62 241.87 39.15 246C42.69 250.12 49.39 256.71 54.04 260.63C58.69 264.55 65.65 269.78 69.5 272.25C73.35 274.72 80.1 278.55 84.5 280.76C88.9 282.96 96.55 286.19 101.5 287.93C106.45 289.67 115 292.06 120.5 293.25C128.77 295.03 133.79 295.41 149.5 295.41C165.21 295.41 170.23 295.03 178.5 293.25C184 292.06 192.55 289.67 197.5 287.93C202.45 286.2 208.52 283.68 211 282.33C213.47 280.99 214.6 280.22 213.5 280.62C212.4 281.02 207.22 282.83 202 284.63C196.77 286.43 188.45 288.61 183.5 289.46C178.55 290.32 169.1 291.02 162.5 291.02C155.9 291.02 146.56 290.34 141.75 289.51C136.94 288.68 129.29 286.84 124.75 285.42C120.21 284 112 280.62 106.5 277.91C101 275.21 92.67 270.13 88 266.63C83.32 263.13 76.01 256.61 71.75 252.14L64 244C42.22 244 41 243.81 40.99 242.25C40.99 241.29 41.55 237.9 42.24 234.73L43.5 228.96C51.64 228.99 53.87 228.66 53.7 228.25C53.54 227.84 51.8 224.12 49.83 220C47.87 215.87 45.08 208.79 43.63 204.25C42.18 199.71 40.32 192.06 39.49 187.25C38.66 182.44 37.98 173.1 37.98 166.5C37.98 159.9 38.66 150.56 39.49 145.75C40.32 140.94 42.34 132.84 43.97 127.75C45.6 122.66 49.01 114.45 51.54 109.5C54.08 104.55 58.17 97.6 60.64 94.05C63.11 90.5 68.36 84.26 72.31 80.18C76.27 76.1 83.1 70.06 87.5 66.76C91.9 63.46 97.19 59.91 99.25 58.88C101.31 57.84 103.38 55.99 103.85 54.75C104.32 53.51 104.99 51.04 105.35 49.25L106 46C85.07 46 79.03 45.66 79.06 45.25C79.1 44.84 79.68 41.57 80.36 38L81.6 31.5C189.37 31.5 196.31 31.69 203 33.26C207.12 34.22 213.2 36.3 216.5 37.87C219.8 39.45 224.52 42.52 227 44.7C229.47 46.88 232.92 50.88 234.66 53.58C236.4 56.29 238.54 60.86 239.41 63.75C240.72 68.08 242.33 70.26 248.62 76.25C252.82 80.24 259.12 87.32 262.62 92C266.12 96.67 271.21 105 273.91 110.5C276.62 116 280 124.21 281.42 128.75C282.84 133.29 284.68 140.94 285.51 145.75C286.34 150.56 287.02 159.9 287.02 166.5C287.02 173.1 286.34 182.44 285.51 187.25C284.68 192.06 282.66 200.16 281.03 205.25C279.4 210.34 275.99 218.55 273.46 223.5C270.92 228.45 266.75 235.42 264.19 239C261.62 242.57 256.61 248.65 253.05 252.5C249.49 256.35 248.52 257.7 250.88 255.5C253.24 253.3 258 248.12 261.46 244C264.91 239.87 269.76 233.35 272.24 229.5C274.72 225.65 278.55 218.9 280.76 214.5C282.96 210.1 286.19 202.45 287.93 197.5C289.67 192.55 292.06 184 293.25 178.5C295.03 170.23 295.41 165.21 295.41 149.5C295.41 133.79 295.03 128.77 293.25 120.5C292.06 115 289.67 106.45 287.93 101.5C286.19 96.55 282.96 88.9 280.76 84.5C278.55 80.1 274.72 73.35 272.25 69.5C269.78 65.65 264.55 58.69 260.63 54.04C256.71 49.39 250.12 42.69 246 39.15C241.87 35.62 234.9 30.36 230.5 27.48C226.1 24.6 218.9 20.44 214.5 18.24C210.1 16.03 202.45 12.81 197.5 11.07C192.55 9.33 184.22 7 179 5.89C172.32 4.47 164.6 3.77 153 3.52C143.92 3.33 135.15 3.37 133.5 3.62Z" />
		<path id="Path 2" class="shp0" d="M81.61 32.19C81.36 32.91 80.87 35.3 80.51 37.5C80.15 39.7 79.67 42.51 79.43 43.75C79 45.99 79.04 46 92.5 46L106 46C105.12 50.26 97.12 91.32 87.65 140L70.43 228.5L43.5 229.01C41.55 237.91 40.99 241.29 40.99 242.25C41 243.89 43.78 244 85.25 244.02L129.5 244.03C130.6 237.42 131.16 234.04 131.46 232.25L132 229L99.44 228.5L114.5 151.19C172 150.33 176.45 150.03 183.75 148.14C188.29 146.96 195.04 144.62 198.75 142.93C202.46 141.24 208.2 137.91 211.5 135.52C214.8 133.13 219.59 129 222.15 126.34C224.71 123.68 228.35 119.02 230.25 116C232.15 112.97 234.85 107.57 236.27 104C237.68 100.42 239.32 94.8 239.92 91.5C240.52 88.2 241.01 81.9 241.02 77.5C241.02 73.1 240.3 67.02 239.42 64C238.54 60.97 236.4 56.29 234.66 53.58C232.92 50.88 229.47 46.9 227 44.73C224.52 42.56 220.25 39.66 217.5 38.27C214.75 36.89 209.12 34.82 205 33.67C197.88 31.7 194.59 31.57 139.78 31.24C92.88 30.95 81.98 31.13 81.61 32.19Z" />
		<path id="Path 3" class="shp1" d="M84.1 37.5C83.49 39.97 82.98 42.34 82.96 42.75C82.93 43.16 83.49 42.99 84.21 42.37C84.92 41.75 85.84 39.83 86.25 38.12L87 35C168.83 35 186 34.65 186 34C186 33.35 168.53 33 135.6 33L85.2 33L84.1 37.5Z" />
		<path id="Path 4" class="shp2" d="M134.51 48.25C134.23 49.49 130.39 69.17 126 92C121.6 114.82 118 134.06 118 134.75C118 135.73 123.32 135.92 142.25 135.63C163.36 135.31 167.34 134.99 173 133.19C176.57 132.05 182.2 129.34 185.5 127.17C188.8 124.99 193.21 121.03 195.31 118.36C197.4 115.69 200.21 111.25 201.54 108.5C202.88 105.75 204.91 99.9 206.07 95.5C207.38 90.5 208.2 84.12 208.27 78.5C208.35 70.85 207.99 68.68 205.83 64C204.44 60.97 201.99 57.2 200.4 55.6C198.8 54.01 195.25 51.65 192.5 50.37C189.75 49.09 184.12 47.6 180 47.05C175.87 46.51 164.07 46.05 153.77 46.03C135.15 46 135.03 46.01 134.51 48.25ZM96.92 60.22C93.39 62.41 87.8 66.35 84.5 68.98C81.2 71.6 75.57 76.85 71.99 80.63C68.41 84.41 63.38 90.42 60.81 94C58.25 97.57 54.08 104.55 51.54 109.5C49.01 114.45 45.6 122.66 43.97 127.75C42.34 132.84 40.32 140.94 39.49 145.75C38.66 150.56 37.98 159.9 37.98 166.5C37.98 173.1 38.66 182.44 39.49 187.25C40.32 192.06 42.17 199.71 43.61 204.25C45.04 208.79 47.97 216.21 50.11 220.75L54 229L70.43 228.5C96.33 95.26 103.73 56.5 103.59 56.41C103.46 56.31 100.45 58.03 96.92 60.22ZM241.06 77.71C241.04 82 240.52 88.2 239.92 91.5C239.32 94.8 237.68 100.42 236.27 104C234.85 107.57 232.15 112.97 230.25 116C228.35 119.02 224.71 123.68 222.15 126.34C219.59 129 214.8 133.13 211.5 135.52C208.2 137.91 202.46 141.24 198.75 142.93C195.04 144.62 188.29 146.96 183.75 148.14C176.45 150.03 172 150.33 145 150.73L114.5 151.19L99.44 228.5L132 229C131.16 234.04 130.6 237.41 130.21 239.75L129.5 244L64.53 244.5C76.13 256.71 83.32 263.12 88 266.62C92.67 270.12 101 275.21 106.5 277.91C112 280.62 120.21 284 124.75 285.42C129.29 286.84 136.94 288.68 141.75 289.51C146.56 290.34 155.9 291.02 162.5 291.02C169.1 291.02 178.44 290.34 183.25 289.51C188.06 288.68 195.71 286.84 200.25 285.42C204.79 284 213 280.62 218.5 277.91C224 275.21 232.32 270.12 237 266.62C241.67 263.12 248.66 256.93 252.52 252.87C256.37 248.82 261.63 242.57 264.19 239C266.75 235.42 270.92 228.45 273.46 223.5C275.99 218.55 279.4 210.34 281.03 205.25C282.66 200.16 284.68 192.06 285.51 187.25C286.34 182.44 287.02 173.1 287.02 166.5C287.02 159.9 286.34 150.56 285.51 145.75C284.68 140.94 282.66 132.84 281.03 127.75C279.4 122.66 275.99 114.45 273.46 109.5C270.92 104.55 266.76 97.57 264.2 94C261.64 90.42 256.16 83.96 252.02 79.64C247.88 75.32 243.74 71.37 242.81 70.86C241.29 70.02 241.11 70.71 241.06 77.71Z" />
		<path id="Path 5" class="shp1" d="M188.9 128.18C187.58 129.31 184.02 131.48 181 133.01C177.97 134.54 172.8 136.29 169.5 136.9C166.2 137.51 153.26 138.01 140.75 138.01C125.91 138 118.17 138.35 118.5 139C118.81 139.62 127.59 140 141.75 140.01C154.26 140.01 167.2 139.51 170.5 138.9C173.8 138.29 178.97 136.54 182 135.01C185.02 133.48 188.57 131.39 189.88 130.36C191.19 129.34 192.04 127.97 191.78 127.32C191.45 126.52 190.53 126.79 188.9 128.18ZM92 136.25C92 136.39 87.97 157.2 83.04 182.5C78.11 207.8 74.28 228.72 74.54 229C74.79 229.27 75.22 229.27 75.48 229C75.74 228.72 80.02 207.8 84.98 182.5C89.94 157.2 94 136.39 94 136.25C94 136.11 93.55 136 93 136C92.45 136 92 136.11 92 136.25Z" />
		<path id="Path 6" class="shp0" d="M153.58 165.5C153.26 166.32 153 167.67 153 168.5C153 169.59 154.31 170.07 157.83 170.25L162.67 170.5C150.55 232.5 147.03 250.84 147.02 251.25C147.01 251.66 149.35 251.89 152.22 251.75L157.44 251.5C160.59 234.22 161.72 228.97 162 228.69C162.27 228.4 164.52 226.62 167 224.72L171.5 221.27L187.5 251.5L205 252C205.49 246.12 205.36 246.02 201.25 246.01L197 246C188.26 229.34 184.45 222.25 182.91 219.5L180.1 214.5C200.25 198.85 201.99 197.06 202 194.75L202 192L185 192C185 197.74 185.32 198.02 188.62 198.25L192.25 198.5C171.52 214.65 164.93 219.82 164.22 220.42C163.24 221.25 163.07 221.05 163.48 219.5C163.77 218.4 166.26 205.8 169.02 191.5C171.77 177.2 174.02 165.16 174.01 164.75C174.01 164.34 169.54 164 164.08 164C156.2 164 154.05 164.31 153.58 165.5Z" />
		<path id="Path 7" class="shp1" d="M44.64 233.25C44.34 234.49 44.3 235.61 44.55 235.75C44.8 235.89 45.64 235.32 46.43 234.5C47.65 233.22 53.61 233 87.93 233C113.98 233 128 232.65 128 232C128 231.35 113.53 231 86.6 231L45.19 231L44.64 233.25ZM126.97 236.73C126.22 236.97 125.69 237.8 125.8 238.58C125.97 239.79 119.87 240 85.5 240C59.17 240 45 240.35 45 241C45 241.65 59.5 242 86.5 242L128 242C128.64 237.74 128.71 236.45 128.58 236.4C128.45 236.34 127.72 236.49 126.97 236.73Z" />
	</g>
</svg>